<?xml version="1.0" encoding="utf-8"?>
<!-- Generator: Adobe Illustrator 22.0.0, SVG Export Plug-In . SVG Version: 6.00 Build 0)  -->
<svg version="1.1" id="Layer_1" xmlns="http://www.w3.org/2000/svg" xmlns:xlink="http://www.w3.org/1999/xlink" x="0px" y="0px"
	 viewBox="0 0 400 400" style="enable-background:new 0 0 400 400;" xml:space="preserve">
<style type="text/css">
	.st0{fill:#FFFFFF;}
	.st1{fill:#33CCFF;}
	.st2{fill:#FFCC00;}
	.st3{fill:#FF99FF;}
	.st4{opacity:0.5;}
	.st5{fill:none;stroke:#FFCC00;stroke-miterlimit:10;}
	.st6{fill:none;stroke:#FFFFFF;stroke-width:10;stroke-miterlimit:10;}
	.st7{fill:none;stroke:#000000;stroke-width:2;stroke-miterlimit:10;}
	.st8{fill:none;stroke:#000000;stroke-width:2;stroke-linecap:round;stroke-miterlimit:10;}
	.st9{fill:none;}
</style>
<g>
	<path class="st3" d="M335.7,251.2c-4-4.7-8-9.6-10.3-15.4c-2.2-5.7-3.1-11.9-3.8-18c0,0,0-0.1,0-0.1c22.7-29.7,34.3-67.4,30.8-105
		c-0.5-5.4-4.2-10.1-10-10.1c-5,0-10.5,4.6-10,10.1c2.5,27-3.2,54.4-16.4,77.7c-1.5-3.8-3.5-7.4-6.1-10.8c-2-2.6-4.4-4.9-6.8-7
		c5-19.3,7.7-39.3,8.1-59.2c0-0.6,0-1.1-0.1-1.7l-19.9,1c0,0.2,0,0.4,0,0.6c-0.3,14.7-1.9,29.1-4.9,43.4c-1.5-2.2-2.7-4.5-3.8-7
		c-5.1-12-7.8-25-15.5-35.7l-135.6,7.1c-2,3.2-3.8,6.6-5.3,10.1c-2.8,6.5-4.8,13.1-5.9,20.1c-0.8,5.4-1.1,11.1-2.6,16.4
		c-8.2-12-13.1-26.2-13.8-40.8c-0.1-1.6-0.5-3-1.2-4.3l-18.4,1c-1.9,3.6-1.5,7,0.1,9.8c2.2,19.4,9.7,37.7,22,52.8
		c-1.2,1.5-2.3,3-3.4,4.6c-3.5,5.2-6.3,10.8-8.5,16.7c-22.2-19-36.6-47-38.1-76.5c-0.7-12.9-20.7-13-20,0c2.1,39,22,75.7,53.3,98.3
		c-0.2,1.7-0.3,3.4-0.4,5.2c-0.4,6.8-0.9,12.5-5.3,17.9c-4.5,5.6-9.4,10.6-12.8,17c-3.2,6.2-5.5,12.8-6.5,19.7
		c-0.4,2.8-0.6,5.6-0.7,8.4h296.5c-0.4-3-1-5.9-1.7-8.7C354.8,273.7,345.5,262.6,335.7,251.2z"/>
	<path class="st0" d="M163.3,130.2c-0.3-0.3-0.5-0.6-0.8-0.8c-3.1-2.9-6.4-4-10.6-4.4c-3.4-0.3-6.8,0.9-9.8,2.3
		c-1.8,0.9-3.4,2.2-4.9,3.6c-4.7,4.6-6.7,12.1-4.9,18.5c1.4,5.1,4.9,10,9.7,12.4c6.1,3,12.9,3.1,18.8-0.5c5.7-3.5,9.1-9.6,9.3-16.3
		C170.2,139.3,167.5,133.8,163.3,130.2z"/>
	<path class="st0" d="M270.9,136.8c-3.6-11.5-17.3-17.6-27.9-11.3c-1.2,0.3-2.3,0.8-3.3,1.5c-3.1,2-6.2,5.2-6.9,9
		c-1,5.6-0.7,11.3,2.6,16.1c3.7,5.5,9.3,9.2,16,9.4C263.8,162,274.8,149.3,270.9,136.8z"/>
	<path d="M124.2,175.5c-2.2,0-4.2-2.9-4.8-4.3c-0.2-0.5,0-1.1,0.5-1.3c0.5-0.2,1.1,0,1.3,0.5c0.7,1.6,2.2,3.2,3,3.1
		c0.5-0.1,1,0.3,1.1,0.9c0.1,0.6-0.3,1.1-0.9,1.1C124.4,175.5,124.3,175.5,124.2,175.5z"/>
	<path d="M154.1,167.9c-3.2,0-6.4-0.8-9.6-2.3c-4.7-2.3-8.6-7.3-10.2-13c-1.8-6.8,0.2-14.6,5.2-19.5c1.8-1.7,3.5-3,5.2-3.8
		c3.9-1.9,7.3-2.7,10.3-2.4c4.7,0.5,8.2,1.9,11.2,4.7c0.3,0.3,0.6,0.6,0.8,0.9c4.6,4.1,7.2,9.9,7,15.5c-0.2,7.1-3.9,13.5-9.8,17.1
		C161.1,167,157.7,167.9,154.1,167.9z M153.7,128.9c-2.4,0-5.1,0.7-8.2,2.3c-1.5,0.7-3,1.9-4.6,3.4c-4.4,4.3-6.3,11.4-4.6,17.5
		c1.4,5.2,4.9,9.7,9.1,11.7c6.1,3,12.4,2.8,17.8-0.5c5.3-3.2,8.6-9,8.8-15.4c0.2-5-2.2-10.3-6.4-13.9l-0.1-0.1
		c-0.2-0.3-0.5-0.5-0.7-0.8c-2.7-2.5-5.7-3.8-10-4.2C154.5,128.9,154.1,128.9,153.7,128.9z"/>
	<path d="M255,165.6c-0.2,0-0.4,0-0.6,0c-6.7-0.2-12.7-3.7-16.8-9.9c-3-4.5-3.9-10-2.7-16.9c0.9-5,5.4-8.5,7.3-9.7
		c1-0.7,2.2-1.2,3.5-1.6c5.1-2.9,11.2-3.4,16.8-1.2c5.9,2.3,10.5,7.2,12.4,13.2c1.8,5.9,0.6,12.2-3.3,17.5
		C267.5,162.4,261.2,165.6,255,165.6z M255.2,127c-3,0-6,0.8-8.7,2.4l-0.2,0.1c-1.2,0.3-2.2,0.8-3.1,1.3c-1.7,1.1-5.7,4.1-6.4,8.4
		c-1.1,6.3-0.3,11.4,2.4,15.4c3.7,5.6,9.2,8.8,15.2,9c5.8,0.2,11.8-2.8,15.5-7.8c3.5-4.7,4.6-10.4,3-15.6l0,0
		c-1.7-5.4-5.9-9.8-11.2-11.9C259.6,127.4,257.4,127,255.2,127z"/>
	<path d="M163.6,138.4c0-0.2,0-0.5,0-0.7c0-1.2-0.2-2.4-0.8-3.4c-0.4-1.1-1-2.1-2-2.9c-0.6-0.5-1.3-0.9-1.9-1.4
		c-1.5-0.8-3.1-1.2-4.8-1.2l-2.5,0.3c-1.6,0.4-3,1.2-4.2,2.3c-0.7,0.6-1.3,1.4-1.8,2.2c-0.4,0.7-0.7,1.6-1,2.3
		c0,0.1-0.1,0.2-0.1,0.3c-0.1,0.4-0.2,1-0.2,1.4c0,0.3-0.2,0.9-0.2,1.4c0,1,0.1,2,0.4,2.9c0.5,1.5,1.3,2.8,2.4,3.9
		c1.2,1.1,2.6,1.9,4.2,2.3c0.7,0.1,1.9,0.3,2.6,0.3c0.9,0,1.8-0.1,2.6-0.3c1.6-0.4,3.1-1.2,4.3-2.4c0.6-0.6,1.2-1.3,1.6-2
		c0.3-0.7,0.6-1.4,1-2.1c0,0,0-0.1,0-0.1c0,0,0,0,0-0.1c0.1-0.8,0.2-1.6,0.3-2.4c0,0,0-0.1,0-0.1
		C163.6,138.8,163.6,138.6,163.6,138.4z"/>
	<path d="M260.7,137.3c-0.1-0.8-0.2-1.6-0.3-2.4c0-0.1,0-0.1,0-0.2c-0.4-1.9-1.5-3.3-2.7-4.7c-0.6-0.5-1.2-0.9-1.8-1.4
		c-1-0.7-2.2-1-3.4-1.1c-0.8-0.2-1.6-0.2-2.4,0c-1.2,0.1-2.3,0.4-3.4,1.1c-0.8,0.3-1.5,1-2.1,1.6c-1.2,1.3-1.4,1.7-2,3.1
		c-0.6,1.4-0.8,1.8-0.8,3.7c0,0.9,0.1,1.8,0.4,2.7c0.3,1.2,0.8,2.2,1.6,3.1c0.1,0.2,0.2,0.3,0.4,0.5c0.5,0.8,1.1,1.4,1.9,1.9
		c0.9,0.8,1.9,1.3,3.1,1.6l2.4,0.3c1.6,0,3.1-0.4,4.5-1.2c0.6-0.5,1.2-0.9,1.8-1.4c1.1-1.1,1.9-2.5,2.3-4c0.1-0.5,0.2-0.9,0.2-1.4
		c0-0.3,0.2-0.9,0.2-1.4C260.7,137.4,260.7,137.4,260.7,137.3z"/>
	<path d="M208.5,210.7c7.3-1.5,10.8-6.6,10.6-11.5c-0.2-3.4-1.5-7-4.8-9.5c-1.8-1.5-4.1-2.6-7-3.3c-7.4-1.6-14,1.6-16.8,6.1
		c-2.5,4-2.2,8.8,1,12.7C194.8,209.6,201.5,212.1,208.5,210.7z"/>
	<g>
		<path d="M88.1,136.3l0-0.2l-0.1-0.2c-1.6-2.7-1.6-5.8-0.1-8.8l0.9-1.7c0.4-0.8,1-1.5,1.6-2.1l-2.7,0.1c-0.2,0.3-0.4,0.7-0.6,1
			l-0.9,1.7c-1.9,3.5-1.9,7.3,0,10.6c2.2,19.3,9.7,37.4,21.7,52.5c-0.9,1.2-1.9,2.6-2.9,4c-3.1,4.6-5.9,9.8-8.1,15.5
			c-21.8-19.2-35.2-46.4-36.7-74.9c-0.4-7.3-6.6-11-12.2-10.7c-5,0.3-10.1,3.8-9.8,10.8c2.1,39,22,75.9,53.3,98.8
			c-0.1,1.6-0.2,3.1-0.3,4.6c-0.4,6.9-0.9,12.3-5.1,17.3c-1.1,1.3-2.1,2.6-3.2,3.9c-3.5,4.1-7,8.3-9.7,13.3
			c-3.4,6.4-5.6,13.2-6.6,20c-0.3,1.8-0.5,3.7-0.6,5.5h2c0.1-1.7,0.3-3.5,0.6-5.2c1-6.6,3.1-13.2,6.4-19.4c2.5-4.8,5.9-8.8,9.4-12.9
			c1.1-1.3,2.2-2.6,3.3-3.9c4.5-5.6,5.1-11.4,5.5-18.5c0.1-1.1,0.1-2.3,0.2-3.4c3.6,2.6,5,5.7,4.8,7.3c-0.1,0.6,0.3,1.1,0.9,1.1
			c0,0,0.1,0,0.1,0c0.5,0,0.9-0.4,1-0.9c0.3-2.7-2-7-7.1-10.1c-31-22.5-50.8-59-52.9-97.5c-0.3-5.7,3.7-8.4,7.9-8.6
			c0.2,0,0.4,0,0.6,0c4.6,0,9.2,2.9,9.5,8.8c1.6,29.5,15.6,57.7,38.5,77.2c0.1,0.1,0.4,0.3,0.6,0.5l0.5,0.4l0,0
			c1.5,1.2,3.9,2.8,5.3,2.8c0.6,0,1-0.5,1-1c0-0.6-0.4-1-1-1c-0.6,0-3-1.4-4.6-2.7c2.2-5.8,5-11.1,8.1-15.8c0.9-1.3,1.8-2.5,2.6-3.6
			c1.9,2.5,3.1,6.2,2.5,8.5c-0.1,0.5,0.2,1.1,0.7,1.2c0.1,0,0.2,0,0.2,0c0.4,0,0.9-0.3,1-0.8c0.9-3.6-1.2-8.6-3.7-11.2
			C97.8,173.6,90.3,155.5,88.1,136.3z"/>
		<path d="M135.1,120.9c-2.8,4.1-5.2,8.4-7.1,13c-3,6.9-4.9,13.6-5.9,20.3c-0.2,1.6-0.4,3.3-0.6,4.9c-0.4,3.1-0.7,6.2-1.4,9.3
			c-7.4-11.5-11.7-24.8-12.4-38.5c-0.1-2.8-1.4-5.5-3.3-7.4l-3,0.2c2.3,1.5,4.1,4,4.3,7.4c0.7,14.8,5.5,29.1,14,41.4l1.2,1.7l0.6-2
			c1.1-3.8,1.6-7.8,2-11.7c0.2-1.6,0.4-3.3,0.6-4.8c1-6.6,2.9-13.1,5.8-19.8c2.1-4.9,4.8-9.6,7.8-13.9L135.1,120.9z"/>
		<path d="M293.8,112.6c-0.4,1.1-0.7,2.4-0.7,3.8c-0.3,13.7-1.7,27.4-4.4,40.8c-0.9-1.5-1.7-3.1-2.4-4.8c-1.6-3.9-3.1-7.9-4.4-11.8
			c-3-8.4-6-17.1-11.6-24.7c-0.5-0.7-1-1.4-1.6-2l-2.5,0.1c0.8,1,1.7,2,2.5,3.1c5.4,7.3,8.3,15.5,11.3,24.1c1.4,3.9,2.8,8,4.5,11.9
			c1.1,2.5,2.3,4.7,3.7,6.9c-0.4,2.7-0.9,4.8-1.1,5.3c-0.3,0.4-0.3,1,0.1,1.3c0.2,0.2,0.5,0.3,0.7,0.3s0.5-0.1,0.7-0.3
			c0.7-0.7,1.4-4.9,1.6-6.7c3-14.3,4.7-28.9,4.9-43.5c0-1.5,0.4-2.9,0.9-4L293.8,112.6z"/>
		<path d="M362.6,291.5c-4-15.7-14.2-27.5-23.1-38c-3.9-4.6-7.9-9.5-10.1-15.1c-2.1-5.4-3-11.3-3.7-17.4
			c23-30.2,34.2-68.5,30.7-105.4c-0.6-6.5-5.1-11-11-11c-3,0-6.2,1.5-8.4,3.9c-1.9,2.1-2.8,4.7-2.6,7.3c2.5,26.1-3,52.8-15.3,75.3
			c-1.5-3.4-3.3-6.4-5.4-9.2c-1.7-2.2-3.8-4.3-6.5-6.7c4.9-19.2,7.6-39,8-58.9c0-1.9-0.3-3.5-1-4.9l-2.2,0.1
			c0.8,1.3,1.2,2.8,1.2,4.8c-0.4,19.9-3.1,39.8-8,59c-0.2,0.7-0.6,1.5-1,2.3c-1.1,2.3-2.2,5-1.5,7.5c0.1,0.4,0.5,0.7,1,0.7
			c0.1,0,0.2,0,0.3,0c0.5-0.2,0.8-0.7,0.7-1.3c-0.5-1.8,0.5-4,1.4-6.1c0.2-0.4,0.3-0.8,0.5-1.1c2.3,2.1,4.1,4,5.6,5.9
			c2.3,3,4.2,6.4,5.8,10.2c-1,2.3-3,2.8-3.1,2.8c-0.5,0.1-0.9,0.7-0.8,1.2c0.1,0.5,0.5,0.8,1,0.8c0.1,0,0.1,0,0.2,0
			c0.1,0,3.3-0.8,4.7-4.4c13.2-23.3,19.1-51.1,16.5-78.2c-0.2-2,0.6-4,2.1-5.7c1.8-2,4.5-3.3,6.9-3.3c5.6,0,8.6,4.8,9,9.2
			c3.4,36.5-7.7,74.5-30.6,104.3l-0.2,0.3c-0.4,0.4-0.8,0.9-1.2,1.4c-2.3,2.6-5.3,5.9-4.6,9.1c0.1,0.5,0.5,0.8,1,0.8
			c0.1,0,0.1,0,0.2,0c0.5-0.1,0.9-0.7,0.8-1.2c-0.5-2.2,2.2-5.1,4.1-7.3c0,0,0,0,0,0c0.7,5.5,1.6,10.9,3.6,16
			c2.3,6,6.4,11,10.5,15.7c8.8,10.2,18.8,21.9,22.7,37.1c0.5,1.9,0.9,3.7,1.2,5.4h2C363.5,295.5,363.1,293.6,362.6,291.5z"/>
	</g>
</g>
</svg>
