<?xml version="1.0" encoding="utf-8"?>
<!-- Generator: Adobe Illustrator 22.0.0, SVG Export Plug-In . SVG Version: 6.00 Build 0)  -->
<svg version="1.1" id="Layer_1" xmlns="http://www.w3.org/2000/svg" xmlns:xlink="http://www.w3.org/1999/xlink" x="0px" y="0px"
	 viewBox="0 0 400 400" style="enable-background:new 0 0 400 400;" xml:space="preserve">
<style type="text/css">
	.st0{fill:#FFFFFF;}
	.st1{fill:#33CCFF;}
	.st2{fill:#FFCC00;}
	.st3{fill:#FF99FF;}
	.st4{opacity:0.5;}
	.st5{fill:none;stroke:#FFCC00;stroke-miterlimit:10;}
	.st6{fill:none;stroke:#FFFFFF;stroke-width:10;stroke-miterlimit:10;}
	.st7{fill:none;stroke:#000000;stroke-width:2;stroke-miterlimit:10;}
	.st8{fill:none;stroke:#000000;stroke-width:2;stroke-linecap:round;stroke-miterlimit:10;}
	.st9{fill:none;}
</style>
<g>
	<path class="st2" d="M274.3,212.7c9.3-16.3,16.4-33.7,17.7-52.6l-19.1,1c-1.5,16.2-8.6,31.1-16.8,45c-0.5,0.9-1.1,1.8-1.6,2.7
		c-3.1-16-7.3-31.7-14.9-46l-92,4.8l-2-38.2c-1.1,0.6-2.2,1.2-3.3,1.9c1.1-4.4,2.6-8.6,4.6-12.7c5.5-10.9-10.9-20.5-16.4-9.6
		c-6.7,13.3-9.3,27.8-9.8,42.4c-8.1,11.3-13.3,24.8-15.3,38.9c-4.9,35.2,1.4,72.6,14.7,105.3h161.3c-13.4-16.4-18.6-37.9-22.2-58.8
		C264.5,229,269.6,221,274.3,212.7z"/>
	<path class="st0" d="M214.9,167.3c-6.8-3.6-15.4-3.1-22.7-1.8c-12.9,2.3-32.3,12.7-30.5,28.2c2.2,18.5,30.1,13,39.8,9.9
		c17.8-5.7,20.5-14.6,21.3-17.2C225.4,178.9,221.9,171,214.9,167.3z"/>
	<path d="M184.6,210.9c-5.4,0-10.6-0.9-14.5-3.4c-3.7-2.4-5.9-6-6.4-10.7c-1.9-15.8,17.6-26.8,31.3-29.3c10-1.8,17.6-1.2,23.3,1.9
		c7.5,3.9,11,12.5,8.4,20.3l0,0.1c-3.9,11.9-17.5,16.2-21.9,17.7C199.9,209.2,192.1,210.9,184.6,210.9z M205.2,168.6
		c-3,0-6.2,0.3-9.8,1c-13,2.3-31.4,12.5-29.7,27.1c0.5,4.1,2.3,7.2,5.5,9.2c8.6,5.5,24.8,2.5,33-0.2c17.1-5.5,19.8-13.7,20.6-16.4
		l0-0.1c2.3-7-0.8-14.4-7.5-17.9l0,0C214.2,169.5,210.1,168.6,205.2,168.6z"/>
	<path d="M217.3,180.8c-0.3-2.4-1.3-4.7-3.1-6.4c-1.4-1.5-3.5-2.7-5.5-3.1c-1.8-0.4-3.6-0.5-5.4-0.1c-0.6,0.1-1.2,0.2-1.8,0.3
		c-1.2,0.3-2.5,0.8-3.5,1.6c-1.7,1.2-3.2,2.5-4.2,4.4c-1.4,2.6-1.9,5.8-1.1,8.6c0.7,2.7,2.6,5.2,5,6.6c1.2,0.7,2.5,1.2,3.8,1.4
		c2.5,0.4,4,0.5,6.4,0c1.7-0.3,3.3-1.2,4.7-2.2C216.1,189.2,217.8,185.2,217.3,180.8z"/>
	<path class="st0" d="M202.9,236.3c0,0-2-12-2.6-13.3c-0.7-1.3-13.7,2-14.7,3.3c-1,1.3,2.7,11.8,2.7,11.8
		C192.9,237.9,197.9,237.3,202.9,236.3z"/>
	<path d="M242.6,214.8c-0.2-0.5-0.8-0.8-1.3-0.6c-0.5,0.2-0.8,0.8-0.6,1.3c2,5.2-5.2,12.2-18.3,17.6c-4.8,2-10.2,3.7-15.7,4.9
		c-0.7-4-2-11.4-2.6-12.6c-0.4-0.7-1.3-0.8-1.6-0.8c-2.7-0.2-13.5,2.3-14.8,4c-0.8,1.1-0.1,4.9,2.1,11.4c-9.9,0-18.3-2.5-21.2-9.1
		c-0.2-0.5-0.8-0.7-1.3-0.5c-0.5,0.2-0.7,0.8-0.5,1.3c3.3,7.5,12.4,10.3,22.9,10.3c0.3,0,0.5,0,0.8,0l0,0l0.7,0c0,0,0,0,0,0
		c1,0,2.1-0.1,3.1-0.1c0.4,0,0.8-0.1,1.1-0.1c0.5,0,1.1-0.1,1.6-0.2c1.1-0.1,2.1-0.2,3.2-0.4c0.1,0,0.2,0,0.2,0
		c1.8-0.3,3.6-0.6,5.5-1l0.9-0.2l0,0c5.8-1.3,11.4-3,16.2-5C237.9,228.9,245.1,221.3,242.6,214.8z M189.4,229.8
		c1.5-1.2,11-3.5,13-3.2c0.4,1.2,1.3,5.9,2.3,11.8c-4,0.8-8,1.3-11.9,1.5c0,0-0.1,0-0.1,0c-0.3,0-0.5,0-0.8,0
		C190.3,235.2,189.2,230.8,189.4,229.8z"/>
	<g>
		<path d="M146.2,135.1c0.4-1.4,0.6-2,0.8-2.8c1-3.6,2.4-7,3.9-10.2c3.1-6.3-0.3-12.2-5.2-14.7c-6-3-10.9,0.1-13,4.2
			c-6,12.1-9.3,26-9.9,42.5c-8,11.2-13.3,24.8-15.3,39.2c-4.5,32.3,0.3,68.5,13.4,102.4h2.2c-13.2-33.8-18.1-69.9-13.6-102.1
			c1.8-13,6.3-25.3,13.2-35.7c-0.2,4.9-0.5,10.9-0.8,17.7c-2.1,43.4-3.3,82.7,5.4,87.8c0.2,0.1,0.3,0.1,0.5,0.1
			c0.3,0,0.7-0.2,0.9-0.5c0.3-0.5,0.1-1.1-0.4-1.4c-8.4-4.9-5.9-55.6-4.4-85.9c0.4-8.4,0.8-15.7,0.9-21.1c0.6-16.4,3.8-30.1,9.7-42
			c2.5-5,7.1-4.9,10.3-3.3c4.1,2,6.9,6.8,4.3,12c-2,3.9-3.5,8.2-4.7,12.9c0,0,0,0,0,0c-5,15.6-3,91.9,0,106.8c0.1,0.5,0.5,0.8,1,0.8
			c0.1,0,0.1,0,0.2,0c0.5-0.1,0.9-0.6,0.8-1.2C143.4,225.8,141.4,151.2,146.2,135.1z"/>
		<path d="M294.1,160.1c0.1,0.5,0.1,1.1,0.1,1.7c-0.9,17-6.6,34-17.7,53.5c-3.8,6.6-8,13.5-13.6,22.1c-0.4-2.1-0.8-4.6-1.2-7.2
			c-1-6.1-2.1-12.9-3.1-18l0.4-0.6c0.4-0.6,0.7-1.2,1.1-1.8c7.4-12.6,16.1-29.4,17.1-47.8c0-0.3,0.1-0.6,0.1-0.9l-2,0.1
			c0,0.2-0.1,0.4-0.1,0.7c-1,18-9.5,34.5-16.8,46.9c-0.1,0.2-0.2,0.3-0.3,0.5c-3-14.9-7.3-31.2-15.9-46.3l-2.3,0.1
			c9.3,16,13.7,33.5,16.7,49.2l0.5,2.6l0,0c0.9,4.7,1.8,10.6,2.7,15.8c0.6,3.7,1.2,7.2,1.6,9.8c0,0,0,0,0,0
			c3.4,19.5,8.2,39.6,19.6,55.6h2.5c-11.8-15.7-16.7-35.9-20.1-55.5c6.2-9.5,10.7-16.9,14.8-24c11.3-19.7,17-37,18-54.4
			c0-0.7,0-1.3-0.1-1.9L294.1,160.1z"/>
	</g>
</g>
</svg>
