<?xml version="1.0" encoding="utf-8"?>
<!-- Generator: Adobe Illustrator 22.0.0, SVG Export Plug-In . SVG Version: 6.00 Build 0)  -->
<svg version="1.1" id="Layer_1" xmlns="http://www.w3.org/2000/svg" xmlns:xlink="http://www.w3.org/1999/xlink" x="0px" y="0px"
	 viewBox="0 0 400 400" style="enable-background:new 0 0 400 400;" xml:space="preserve">
<style type="text/css">
	.st0{fill:#FFFFFF;}
	.st1{fill:#33CCFF;}
	.st2{fill:#FFCC00;}
	.st3{fill:#FF99FF;}
	.st4{opacity:0.5;}
	.st5{fill:none;stroke:#FFCC00;stroke-miterlimit:10;}
	.st6{fill:none;stroke:#FFFFFF;stroke-width:10;stroke-miterlimit:10;}
	.st7{fill:none;stroke:#000000;stroke-width:2;stroke-miterlimit:10;}
	.st8{fill:none;stroke:#000000;stroke-width:2;stroke-linecap:round;stroke-miterlimit:10;}
	.st9{fill:none;}
</style>
<g>
	<path class="st2" d="M293.3,280.3c5.1-0.9,7.9-7.1,6.6-11.7c-0.8-3.1-2.9-5.1-5.4-6.1c-0.1-0.4-0.2-0.7-0.3-1.1
		c-0.4-1.8-0.8-3.6-1.1-5.3c-0.6-3.6-0.9-7.2-1.4-10.8c-1-6.9-2.3-13.7-4.1-20.5c-1.6-6.2-3.5-12.2-5.7-18.2
		c1.2-11.2,1.1-22.5,0.1-33.5c-1.6-18.6-6-37.2-15.6-53.4c-17.8-29.9-56.8-48.9-89.7-31.7c-31,16.2-41.4,56.2-42.7,89
		c-8,11.1-14.2,23.5-18.1,36.7c-2.5,8.6-4,17.6-4.6,26.5c-0.1,1.8,0.3,19.5-2.8,18.9c-11.9-2.7-17,15.7-5.1,18.3
		c11.1,2.5,21-4.4,24.7-14.8c3.4-9.8,1.4-21,3.1-31.2c1.1-6.5,2.8-12.8,5.1-19c5.8,32,22.2,62.9,55.7,69.1c4.4,2,8.1,4.8,11,9.1
		c3.5,5.3,5.7,11.9,4.7,18.3c-0.5,3.4,0.2,6.9,2.4,9.2c0.8,1.3,1.9,2.4,3.3,3.2c3.3,1.8,6.9,3.3,10.6,4.1c4.8,1.1,10.5-1.5,11.7-6.6
		c1.1-4.8-1.4-10.5-6.6-11.7c-0.8-0.2-1.6-0.4-2.5-0.7c0.1-8.9-2.2-17.6-7.1-25.3c7.1-0.6,14.1-2.6,20.5-5.7c5,1.7,10,3.4,14.6,6
		c10.3,5.7,13.8,16.8,17.1,27.4c1.8,5.9,7.4,7.5,12,6.2c2.1-0.3,4.2-1.1,5.7-2.7c1.7-1.8,3.3-3.5,5-5.3c1.7-1.8,2.8-4.2,2.8-6.7
		c0-2.3-1-5.1-2.8-6.7c-1.8-1.7-4.2-2.9-6.7-2.8c-0.7,0-1.4,0.1-2.1,0.3c-3.8-9.3-9-17.7-17.6-23.8c-3.1-2.2-6.4-3.9-9.9-5.3
		c5.6-5.9,10.3-12.8,13.9-20.2C274.4,255.5,273.4,283.8,293.3,280.3z"/>
	<path class="st1" d="M221.5,98.3c-1.5-5.1-4.3-10.8-8-15.8h0c0,0,0,0,0,0c-0.3-0.4-0.6-0.8-1-1.2c0-0.1-0.1-0.1-0.1-0.2
		c-0.3-0.4-0.6-0.7-0.9-1c-0.1-0.1-0.1-0.1-0.2-0.2c-0.3-0.3-0.6-0.7-0.9-1c0,0-0.1-0.1-0.1-0.1c-1.1-1.1-2.2-2.2-3.4-3.1
		c-0.1-0.1-0.2-0.1-0.3-0.2c-0.3-0.2-0.6-0.5-0.9-0.7c-0.1-0.1-0.2-0.2-0.3-0.2c-0.3-0.2-0.6-0.4-0.9-0.6c-0.1-0.1-0.3-0.2-0.4-0.2
		c-0.3-0.2-0.6-0.3-0.9-0.5c-0.1-0.1-0.2-0.1-0.3-0.2c-0.4-0.2-0.8-0.4-1.2-0.6c0,0-0.1,0-0.1,0c-0.4-0.2-0.9-0.4-1.4-0.5
		c-0.1,0-0.2-0.1-0.3-0.1c-0.3-0.1-0.7-0.2-1-0.3c-0.2,0-0.3-0.1-0.5-0.1c-0.3-0.1-0.6-0.1-0.9-0.2c-0.2,0-0.4-0.1-0.5-0.1
		c-0.3,0-0.6-0.1-0.9-0.1c-0.2,0-0.4,0-0.5,0c-0.3,0-0.7,0-1,0c-0.2,0-0.3,0-0.5,0c-0.5,0-1,0-1.5,0.1c-0.4,0-0.9,0.1-1.3,0.2
		c-0.1,0-0.3,0.1-0.4,0.1c-0.3,0.1-0.6,0.1-0.8,0.2c-0.2,0-0.3,0.1-0.5,0.1c-0.2,0.1-0.5,0.1-0.7,0.2c-0.2,0.1-0.3,0.1-0.5,0.2
		c-0.2,0.1-0.5,0.2-0.7,0.3c-0.2,0.1-0.3,0.1-0.5,0.2c-0.2,0.1-0.5,0.2-0.7,0.3c-0.2,0.1-0.3,0.1-0.5,0.2c-0.2,0.1-0.5,0.3-0.7,0.4
		c-0.1,0.1-0.3,0.1-0.4,0.2c-0.3,0.2-0.7,0.4-1,0.7c-0.1,0.1-0.2,0.2-0.3,0.2c-0.2,0.2-0.5,0.3-0.7,0.5c-0.1,0.1-0.3,0.2-0.4,0.4
		c-0.2,0.1-0.4,0.3-0.5,0.4c-0.2,0.1-0.3,0.3-0.5,0.4c-0.2,0.1-0.3,0.3-0.5,0.4c-0.2,0.1-0.3,0.3-0.4,0.4c-0.1,0.1-0.3,0.3-0.4,0.4
		c-0.1,0.2-0.3,0.3-0.4,0.5c-0.1,0.2-0.3,0.3-0.4,0.5c-0.1,0.2-0.3,0.3-0.4,0.5c-0.1,0.2-0.2,0.3-0.4,0.5c-1,1.2-1.8,2.5-2.6,3.9
		c-1.3,2.3-2.8,5-4,7.9c1.7-1.1,3.4-2.1,5.2-3.1c4-2.1,8.2-3.7,12.3-4.7c3.3,1.8,6.1,4.4,8.2,7.5c0.6,1,4.9,9.2,5.9,12.3
		C206.7,115,225,110,221.5,98.3z"/>
	<g>
		<path class="st7" d="M192.1,86.4c-4.2,1.1-8.3,2.6-12.3,4.7c-31,16.2-41.4,56.2-42.7,89c-8,11.1-14.2,23.5-18.1,36.7
			c-2.5,8.6-4,17.6-4.6,26.5c-0.1,1.8,0.3,19.5-2.8,18.9c-11.9-2.7-17,15.7-5.1,18.3c11.1,2.5,21-4.4,24.7-14.8
			c3.4-9.8,1.4-21,3.1-31.2c1.1-6.5,2.8-12.8,5.1-19c5.8,32,22.2,62.9,55.7,69.1c4.4,2,8.1,4.8,11,9.1c3.5,5.3,5.7,11.9,4.7,18.3
			c-0.5,3.4,0.2,6.9,2.4,9.2c0.8,1.3,1.9,2.4,3.3,3.2c3.3,1.8,6.9,3.3,10.6,4.1c4.8,1.1,10.5-1.5,11.7-6.6
			c1.1-4.8-1.4-10.5-6.6-11.7c-0.8-0.2-1.6-0.4-2.5-0.7c0.1-8.9-2.2-17.6-7.1-25.3c7.1-0.6,14.1-2.6,20.5-5.7c5,1.7,10,3.4,14.6,6
			c10.3,5.7,13.8,16.8,17.1,27.4c1.8,5.9,7.4,7.5,12,6.2c2.1-0.3,4.2-1.1,5.7-2.7c1.7-1.8,3.3-3.5,5-5.3c1.7-1.8,2.8-4.2,2.8-6.7
			c0-2.3-1-5.1-2.8-6.7c-1.8-1.7-4.2-2.9-6.7-2.8c-0.7,0-1.4,0.1-2.1,0.3c-3.8-9.3-9-17.7-17.6-23.8c-3.1-2.2-6.4-3.9-9.9-5.3
			c5.6-5.9,10.3-12.8,13.9-20.2c2.3,13.3,1.3,41.6,21.3,38.1c5.1-0.9,7.9-7.1,6.6-11.7c-0.8-3.1-2.9-5.1-5.4-6.1
			c-0.1-0.4-0.2-0.7-0.3-1.1c-0.4-1.8-0.8-3.6-1.1-5.3c-0.6-3.6-0.9-7.2-1.4-10.8c-1-6.9-2.3-13.7-4.1-20.5
			c-1.6-6.2-3.5-12.2-5.7-18.2c1.2-11.2,1.1-22.5,0.1-33.5c-1.6-18.6-6-37.2-15.6-53.4c-11.4-19.1-31.4-33.8-53-37.3"/>
		<path class="st7" d="M224.5,101.3c-1.5-5.1-4.3-10.8-8-15.8h0c0,0,0,0,0,0c-0.3-0.4-0.6-0.8-1-1.2c0-0.1-0.1-0.1-0.1-0.2
			c-0.3-0.4-0.6-0.7-0.9-1c-0.1-0.1-0.1-0.1-0.2-0.2c-0.3-0.3-0.6-0.7-0.9-1c0,0-0.1-0.1-0.1-0.1c-1.1-1.1-2.2-2.2-3.4-3.1
			c-0.1-0.1-0.2-0.1-0.3-0.2c-0.3-0.2-0.6-0.5-0.9-0.7c-0.1-0.1-0.2-0.2-0.3-0.2c-0.3-0.2-0.6-0.4-0.9-0.6c-0.1-0.1-0.3-0.2-0.4-0.2
			c-0.3-0.2-0.6-0.3-0.9-0.5c-0.1-0.1-0.2-0.1-0.3-0.2c-0.4-0.2-0.8-0.4-1.2-0.6c0,0-0.1,0-0.1,0c-0.4-0.2-0.9-0.4-1.4-0.5
			c-0.1,0-0.2-0.1-0.3-0.1c-0.3-0.1-0.7-0.2-1-0.3c-0.2,0-0.3-0.1-0.5-0.1c-0.3-0.1-0.6-0.1-0.9-0.2c-0.2,0-0.4-0.1-0.5-0.1
			c-0.3,0-0.6-0.1-0.9-0.1c-0.2,0-0.4,0-0.5,0c-0.3,0-0.7,0-1,0c-0.2,0-0.3,0-0.5,0c-0.5,0-1,0-1.5,0.1c-0.4,0-0.9,0.1-1.3,0.2
			c-0.1,0-0.3,0.1-0.4,0.1c-0.3,0.1-0.6,0.1-0.8,0.2c-0.2,0-0.3,0.1-0.5,0.1c-0.2,0.1-0.5,0.1-0.7,0.2c-0.2,0.1-0.3,0.1-0.5,0.2
			c-0.2,0.1-0.5,0.2-0.7,0.3c-0.2,0.1-0.3,0.1-0.5,0.2c-0.2,0.1-0.5,0.2-0.7,0.3c-0.2,0.1-0.3,0.1-0.5,0.2c-0.2,0.1-0.5,0.3-0.7,0.4
			c-0.1,0.1-0.3,0.1-0.4,0.2c-0.3,0.2-0.7,0.4-1,0.7c-0.1,0.1-0.2,0.2-0.3,0.2c-0.2,0.2-0.5,0.3-0.7,0.5c-0.1,0.1-0.3,0.2-0.4,0.4
			c-0.2,0.1-0.4,0.3-0.5,0.4c-0.2,0.1-0.3,0.3-0.5,0.4c-0.2,0.1-0.3,0.3-0.5,0.4c-0.2,0.1-0.3,0.3-0.4,0.4c-0.1,0.1-0.3,0.3-0.4,0.4
			c-0.1,0.2-0.3,0.3-0.4,0.5c-0.1,0.2-0.3,0.3-0.4,0.5c-0.1,0.2-0.3,0.3-0.4,0.5c-0.1,0.2-0.2,0.3-0.4,0.5c-1,1.2-1.8,2.5-2.6,3.9
			c-1.3,2.3-2.8,5-4,7.9c1.7-1.1,3.4-2.1,5.2-3.1c4-2.1,8.2-3.7,12.3-4.7c3.3,1.8,13.1,16.7,14,19.9C209.7,118,228,113,224.5,101.3z
			"/>
		<path class="st8" d="M204.6,152.8c0,0-15.4-0.5-27.1,3.7"/>
		<path class="st8" d="M235.8,150.6c3.6-0.5,15.4-1.2,23.2,0.8"/>
		<path class="st8" d="M222.6,284.5c-3-4.9-8.8-11.6-5.7-12"/>
		<path class="st8" d="M261.2,265.4c-3.8-1.2-3.1-3.2-2.1-4.8"/>
		<path class="st8" d="M285,209.7c-1.3,15-5.3,26.5-9.9,35.5"/>
		<path class="st8" d="M288.7,294.4c-3.5,0.8-4,4.3-6,3.5"/>
		<path class="st8" d="M172.3,187.7c15.7,7.3,90.9,3.2,97.8-7.4"/>
	</g>
</g>
</svg>
