<?xml version="1.0" encoding="utf-8"?>
<!-- Generator: Adobe Illustrator 22.0.0, SVG Export Plug-In . SVG Version: 6.00 Build 0)  -->
<svg version="1.1" id="Layer_1" xmlns="http://www.w3.org/2000/svg" xmlns:xlink="http://www.w3.org/1999/xlink" x="0px" y="0px"
	 viewBox="0 0 400 400" style="enable-background:new 0 0 400 400;" xml:space="preserve">
<style type="text/css">
	.st0{fill:#FFFFFF;}
	.st1{fill:#33CCFF;}
	.st2{fill:#FFCC00;}
	.st3{fill:#FF99FF;}
	.st4{opacity:0.5;}
	.st5{fill:none;stroke:#FFCC00;stroke-miterlimit:10;}
	.st6{fill:none;stroke:#FFFFFF;stroke-width:10;stroke-miterlimit:10;}
	.st7{fill:none;stroke:#000000;stroke-width:2;stroke-miterlimit:10;}
	.st8{fill:none;stroke:#000000;stroke-width:2;stroke-linecap:round;stroke-miterlimit:10;}
	.st9{fill:none;}
</style>
<g>
	<path class="st9" d="M164.5,255.4c-0.3,6.8,0.3,13.5,1.9,19.7c1.4,5.2,3.5,9.8,7.5,13.2c2.6,2.2,7,3.1,11.4,3.4
		c-4.7-6.8-9.1-13.9-13.1-21.2C169.4,265.6,166.9,260.6,164.5,255.4z"/>
	<path class="st1" d="M239.4,285.9c-2.1,0.4-4.3,0.8-6.4,1.2l26.2-195.2c-4.9-8.9-10.8-17.2-19.5-22.8c-27-17.5-61.3-5.2-79.5,18.7
		c-20.9,27.3-21.4,63.6-16.9,96.2c1.3,9.5,3.2,18.9,5.6,28.1c-2.1,6.2-3.9,12.5-5.2,18.9c-2.3,10.9-3.8,22.7-3.1,34.2
		c0.4,7,1.7,13.8,4,20.3c0.7,2,1.6,4,2.5,6c2.7,5.5,6.2,10.6,10.9,14.6c7.8,6.5,17.1,9.2,27.1,9.7c6.2,0.3,12.5,0.1,18.8-0.3
		c7,7.9,14.4,15.3,22.3,22.2l3.4-25.6c5.5-0.9,10.8-2,16.1-3.1c6.4-1.3,10-8.8,8.4-14.8C252.4,287.6,245.8,284.6,239.4,285.9z
		 M173.9,288.3c-4.1-3.4-6.1-8-7.5-13.2c-1.7-6.1-2.2-12.8-1.9-19.7c2.4,5.1,5,10.2,7.7,15.2c4,7.3,8.4,14.3,13.1,21.2
		C181,291.4,176.5,290.5,173.9,288.3z"/>
	<path class="st3" d="M153.2,270c-2.6-6.7-8.6-8.1-12.7-4.8c0.4,7,1.7,13.8,4,20.3c0.7,2,1.6,4,2.5,6
		C154,287.9,156.1,277.7,153.2,270z"/>
	<path class="st0" d="M236,148.9c-1.7-14.2-9-28-23.7-32c-17.4-4.7-32.2,10-33.5,26.6c-0.8,10.1,3,19.6,9.5,26.6
		c6.4,8.1,16.8,12.6,27.5,10.7C231.3,178.1,237.7,163.3,236,148.9z"/>
	<path class="st3" d="M172.4,111.9c-3.9-6.8-13.3-8-18.7-2.4c-3.7,3.8-3.6,9.3-3,14.3c-0.2,0.9-0.4,1.8-0.3,2.8
		c0.2,5.6,4.6,10.7,10.5,10.5c6.4-0.2,11.9-4.4,13.6-10.7C175.7,121.8,174.8,116,172.4,111.9z"/>
	<path class="st3" d="M229.5,74.5c-0.2-1.1-0.7-2.2-1.2-3.2c-2-4.3-6.8-6.8-11.3-6.9c-2.6-0.1-5.6,1.2-7.4,3.1
		c-0.3,0.3-0.6,0.7-0.9,1.1c-0.9,0.8-1.6,1.7-2.2,2.6c-0.9,1.6-1.7,3.7-1.6,5.6c0,0.3,0,0.6,0,0.9c0,0,0.2,2.2,0.5,3.1
		c0.3,0.8,0.7,2,1.2,2.7c0.5,0.9,1.3,1.9,2,2.6c0.6,0.6,1.6,1.3,2.3,1.8c0.1,0.1,0.3,0.2,0.4,0.3c4.7,2.7,11.2,2.3,15.1-1.7
		c1.6-1.6,2.8-3.6,3.3-5.8C230,78.3,229.9,76.9,229.5,74.5z"/>
	<path class="st3" d="M185.7,190.4c-5.8-7.5-17.9-6.6-22.8,1.5c-2.5,4.2-2.2,9.2-0.1,13.3c0.6,2,1.7,3.8,3.1,5.3
		c3.5,3.4,8.5,5,13.2,3.4C188.9,210.7,191.8,198.2,185.7,190.4z"/>
	<path class="st3" d="M247.7,133c0.1,1.6,0.5,3.2,1.4,4.5c0.8,1.4,2.1,2.7,3.6,3.6l3.5-26.2c-2.5,0.1-5,1.1-6.8,3
		c-2.9,3.1-4.4,7.7-3.1,11.9C246.6,131,247.1,132.1,247.7,133z"/>
	<path class="st3" d="M234.9,262.9c0.5,0,0.9-0.1,1.4-0.1l3.8-28.2c-2.3-1.7-5-2.9-7.9-2.7c-5.4,0.3-11.2,6.2-12.4,11.6
		c-0.6,2.6,0.3,10.9,2,13.2c2.7,3.8,6.3,6.3,11,6.4C233.5,263,234.2,263,234.9,262.9z"/>
	<path d="M234.3,144.2c-1.1-4.1-4.5-7.4-8.5-8.6c-1.6-0.5-3.2-0.6-4.8-0.4c-1.7,0.1-3.9,0.8-5.1,1.6c-0.7,0.4-1.7,1.2-2.3,1.8
		c-0.7,0.7-1.3,1.5-1.8,2.4c-1.6,2.7-2.2,6.3-1.3,9.3c1.2,4,4.1,7.1,8.2,8.3c3.3,0.9,6.9,0.4,9.8-1.3
		C232.9,154.6,235.8,149.5,234.3,144.2z"/>
	<path class="st0" d="M212.3,197.2c0.6,3.3,2.5,12,5.1,13.6c3.3,2,18.5-2.3,21.3-6.4c2.1-3-1.6-10.9-3.6-14.9
		C227.9,192.7,220.3,195.3,212.3,197.2z"/>
	<path class="st3" d="M196,292.3c10.7,0.2,17.9-1,25.5-2.6c0-2.4-0.6-4.8-1.9-7c-1.4-2.3-3.4-4.4-5.8-5.6c-3.5-1.9-7-2-10.9-1.4
		c-3.2,0.5-6.8,4.1-7.3,7.3c-0.5,3.1-0.8,6.2,0.4,9.2C196,292.2,196,292.2,196,292.3z"/>
	<path class="st0" d="M226.9,138.5c-1.9,0-1.9,3,0,3C228.8,141.5,228.8,138.5,226.9,138.5z"/>
	<path d="M213.9,185.3c1.7,0,3.3-0.1,5-0.4c7.6-1.4,13.5-5.5,17.3-12.1c3.3-5.9,4.7-13.3,3.8-21c-2-17-11.2-29.2-24.5-32.8
		c-7.5-2-15.2-0.6-21.6,3.9c-7.5,5.3-12.4,14.1-13.2,23.6c-0.8,9.8,2.8,19.8,9.7,27.3C196.4,181.2,205,185.3,213.9,185.3z
		 M182.8,146.6c0.7-8.7,5.4-17.2,12.3-22.1c5.9-4.2,13-5.5,19.9-3.6c12.5,3.3,21.1,15,23,31.1c1.5,12.9-3.9,28.1-19.4,30.9
		c-9.9,1.8-20-2.2-26.6-10.4C185.4,165.4,182,155.9,182.8,146.6z"/>
	<path d="M246.4,187.3c-15.8,8.6-33.4,13.7-54.3,15.8c-0.5,0.1-0.9,0.5-0.9,1.1c0.1,0.5,0.5,0.9,1,0.9c0,0,0.1,0,0.1,0
		c7.8-0.8,15.2-2,22.2-3.7c1.1,5.4,2.9,11.6,5.4,13.2c0.7,0.4,1.9,0.6,3.3,0.6c6,0,16.8-3.7,19.4-7.3c2.1-3-0.4-9.6-3.1-15
		c2.3-1,4.5-2.1,6.7-3.3L246.4,187.3z M237.6,193.8c3.2,6.4,4.5,11.3,3.3,13c-2.7,3.8-17.3,7.8-20,6.1c-1.4-0.9-3.2-5.5-4.5-12
		c0.1,0,0.2-0.1,0.3-0.1c1.6-0.4,3.2-0.8,4.7-1.3c0.5-0.1,1-0.3,1.4-0.4c1.1-0.3,2.1-0.6,3.1-1c0.9-0.3,1.8-0.6,2.6-0.9
		c0.9-0.3,1.8-0.6,2.7-1c0.7-0.3,1.5-0.6,2.2-0.8c1-0.4,1.9-0.8,2.9-1.2C236.8,194.1,237.2,194,237.6,193.8z"/>
	<path d="M242.1,73c6.5,4.2,11.9,10.1,17.1,18.8l0.4-3.1c-5-7.8-10.2-13.3-16.4-17.4c-12.8-8.3-28.3-10.5-43.8-6.3
		c-14.2,3.9-27.7,13.1-37,25.2c-17.4,22.7-23,54.4-17.1,97c1.3,9.3,3.1,18.7,5.5,27.9c-2.2,6.6-3.9,12.7-5.1,18.8
		c-4.7,22.5-4.4,40.5,1,55c3.4,9.3,7.9,16.2,13.7,21c7.4,6.1,16.4,9.4,27.7,9.9c5.8,0.3,11.8,0.2,18.5-0.3
		c6.1,6.9,12.7,13.5,19.6,19.6l0.3-2.4c-6-5.5-11.8-11.3-17.3-17.4c6.6-0.5,16.7-1.9,23.8-3.2c4.8-0.8,9.9-1.8,16.2-3.1
		c3-0.6,5.7-2.6,7.5-5.5c2-3.2,2.6-7.2,1.7-10.5c-1.9-6.8-8.6-10.6-15.9-9.1c-2.1,0.4-4.3,0.8-6.4,1.2c-16.1,3.3-30.7,5.9-47,4.6
		c-4.6-6.7-9-13.7-12.8-20.7c-2.7-4.9-5.3-10-7.7-15.1l-1.7-3.7l-0.2,4.1c-0.3,7.4,0.4,14.2,2,20c1.2,4.3,3.2,9.8,7.9,13.7
		c3.1,2.5,8.2,3.4,11.9,3.7c0,0,0,0,0,0c0,0,0,0,0,0c0,0,0,0,0,0l2.1,0.1l0,0c15.8,1,30.2-1.6,45.9-4.8c2.1-0.4,4.3-0.8,6.4-1.2
		c5.4-1.1,11.8,1.2,13.6,7.7c0.8,2.9,0.2,6.2-1.4,9c-1.5,2.4-3.7,4-6.2,4.6c-6.2,1.3-11.4,2.2-16.1,3.1c-7.6,1.4-18.7,2.9-25.1,3.3
		l0,0l-0.5,0c-6.7,0.5-12.8,0.6-18.7,0.3c-10.8-0.5-19.5-3.6-26.5-9.4c-5.6-4.6-9.9-11.2-13.1-20.2c-5.2-14.2-5.5-31.9-0.9-54
		c1.3-6.1,2.9-12.2,5.2-18.8l0.1-0.3l-0.1-0.3c-2.4-9.2-4.3-18.7-5.6-28c-5.8-42-0.3-73.2,16.8-95.5C181.3,68.7,215.3,55.6,242.1,73
		z M177.6,290.5c-4.3-3.6-6.1-8.7-7.2-12.7c-1.2-4.5-1.9-9.6-2-15.1c1.9,3.8,3.9,7.7,5.9,11.4c3.6,6.6,7.6,13.1,12,19.5
		C182.3,293,179.4,292,177.6,290.5z"/>
</g>
</svg>
